# xmcd CD database file
#
# Track frame offsets:
#	150
#	14124
#	27425
#	41380
#	54980
#	67974
#	77835
#	89867
#	104153
#	119224
#	131835
#	146329
#	158366
#	171622
#	185827
#	198971
#	213166
#	227592
#	239675
#	254777
#	265758
#	277246
#	291317
#	303870
#
# Disc length: 4233 seconds
#
# Revision: 2
# Processed by: cddbd v1.5.2PL0 Copyright (c) Steve Scherf et al.
# Submitted via: CDex 1.75
#
DISCID=7c108718
DTITLE=Muddy Waters - The Chess Singles Collection and At Newport 1960
DYEAR=1960
DGENRE=Blues
TTITLE0=Rollin' stone
TTITLE1=Walkin' blues
TTITLE2=You gonna need my help I said
TTITLE3=Sad letter blues
TTITLE4=Louisiana blues
TTITLE5=Evans shuffle
TTITLE6=Long distance call
TTITLE7=Too young to know
TTITLE8=Honey bee
TTITLE9=Appealing blues (Hello little girl)
TTITLE10=Still a fool
TTITLE11=My fault
TTITLE12=She moves me
TTITLE13=Early morning blues
TTITLE14=All night long
TTITLE15=Country boy
TTITLE16=Please have mercy
TTITLE17=I can't be satisfied
TTITLE18=Standing around crying
TTITLE19=Gone to Main Street
TTITLE20=She's all right
TTITLE21=Sad, sad day
TTITLE22=Turn the lamp down low
TTITLE23=Who's gonna be your sweet man when I'm gone
EXTD=YEAR: 1960
EXTT0=
EXTT1=
EXTT2=
EXTT3=
EXTT4=
EXTT5=
EXTT6=
EXTT7=
EXTT8=
EXTT9=
EXTT10=
EXTT11=
EXTT12=
EXTT13=
EXTT14=
EXTT15=
EXTT16=
EXTT17=
EXTT18=
EXTT19=
EXTT20=
EXTT21=
EXTT22=
EXTT23=
PLAYORDER=
